# xmcd
#
# Track frame offsets:
#	150
#	11967
#	22007
#	33511
#	44353
#	55241
#	65863
#	75654
#	89444
#	102878
#	113351
#	122999
#	134277
#	145168
#	159492
#	171011
#	182706
#	195441
#
# Disc length: 2788 seconds
# Revision: 0
# Processed by: cddbd v1.5.2PL0 Copyright (c) Steve Scherf et al.
# Submitted via: dBpowerAMP V12.0
#
DISCID=f60ae212
DTITLE=Various Artist - 50 Years Of Country Vol. 1 (1950-1965), Disc 2
DYEAR=2000
DGENRE=Country
TTITLE0=Tenessee Ernie Ford - Sixteen Tons
TTITLE1=Johnny Cash and The Tenessee Two - Get Rhythm
TTITLE2=Patsy Cline - Walkin' After Midnight
TTITLE3=Sonny James - Lovesick Blues
TTITLE4=Charlie Walker - Pick Me up on Your Way Down
TTITLE5=The Everly Brothers - All I Have to Do Is Dream
TTITLE6=Jerry Lee Lewis - Night Train to Memphis
TTITLE7=Charlie Rich - Sittin' and Thinkin'
TTITLE8=Ray Price - Heartaches by the Number
TTITLE9=Ferlin Husky - Wings of a Dove
TTITLE10=Hank Thompson - A Six Pack to Go
TTITLE11=Charlie Ryan and The Timberline Riders - Hot Rod Lincoln
TTITLE12=Faron Young - Hello Walls
TTITLE13=Tex Ritter - I Dreamed of a Hill-Billy Heaven
TTITLE14=Rose Maddox - Gotta Travel On
TTITLE15=Wanda Jackson - In the Middle of a Heartache
TTITLE16=Johnny Tillotson - It Keep Right on A-Hurtin'
TTITLE17=Willie Nelson - Funny How Time Slips Away
EXTD=
EXTT0=
EXTT1=
EXTT2=
EXTT3=
EXTT4=
EXTT5=
EXTT6=
EXTT7=
EXTT8=
EXTT9=
EXTT10=
EXTT11=
EXTT12=
EXTT13=
EXTT14=
EXTT15=
EXTT16=
EXTT17=
PLAYORDER=
